<?xml version="1.0" standalone="no"?>
<!DOCTYPE svg PUBLIC "-//W3C//DTD SVG 20010904//EN"
 "http://www.w3.org/TR/2001/REC-SVG-20010904/DTD/svg10.dtd">
<svg version="1.0" xmlns="http://www.w3.org/2000/svg"
 width="860.000000pt" height="849.000000pt" viewBox="0 0 860.000000 849.000000"
 preserveAspectRatio="xMidYMid meet">

<g transform="translate(0.000000,849.000000) scale(0.100000,-0.100000)"
fill="#000000" stroke="none">
<path d="M3627 8070 c-138 -7 -152 -10 -212 -39 -38 -19 -80 -50 -104 -77 -73
-83 -159 -288 -191 -456 l-11 -56 -312 -4 c-257 -3 -318 -7 -348 -20 -53 -23
-61 -53 -57 -208 4 -186 -2 -182 296 -196 78 -3 142 -9 142 -13 -1 -3 -28 -26
-62 -51 -101 -74 -220 -198 -256 -267 -41 -79 -75 -209 -99 -383 -16 -118 -18
-209 -18 -732 l0 -597 23 -23 23 -23 477 0 c262 0 489 3 503 7 15 4 30 16 34
25 5 10 11 113 14 228 l6 210 1415 0 1415 0 5 -217 c4 -191 7 -219 23 -235 16
-17 52 -18 480 -21 254 -2 480 1 502 5 69 15 69 11 73 498 6 628 -14 922 -78
1150 -40 143 -65 175 -264 345 l-100 85 130 7 c187 11 274 24 293 43 13 13 17
43 19 153 3 154 -2 174 -58 206 -33 20 -54 21 -348 24 -310 4 -312 4 -317 25
-3 12 -12 53 -20 92 -45 201 -145 386 -245 454 -103 70 0 65 -1380 67 -685 1
-1311 -2 -1393 -6z m2599 -201 c66 -50 137 -126 159 -168 32 -62 45 -160 45
-339 l0 -172 -1542 2 -1543 3 3 185 c4 266 29 344 142 439 63 53 103 70 193
80 40 5 616 9 1281 10 l1209 1 53 -41z m-3011 -1238 c169 -50 315 -154 330
-235 21 -112 -89 -179 -295 -180 -132 -1 -224 18 -337 70 -109 49 -223 167
-223 229 0 50 60 100 154 131 62 21 281 12 371 -15z m3761 0 c137 -60 141
-150 12 -266 -107 -96 -266 -148 -458 -148 -106 0 -134 3 -182 22 -155 61
-158 192 -7 293 62 41 106 61 199 90 100 31 145 37 270 34 93 -2 125 -7 166
-25z"/>
<path d="M7777 4900 c-89 -16 -165 -62 -297 -181 -207 -186 -439 -400 -982
-906 l-518 -483 -1361 0 -1361 0 7 88 c4 48 8 88 9 89 0 0 456 6 1011 12 556
6 1066 16 1135 21 180 15 216 27 282 99 106 115 143 209 136 352 -4 76 -9 97
-41 162 -46 94 -123 167 -235 225 l-80 42 -1099 -1 c-1173 0 -1742 -10 -1808
-29 -94 -28 -173 -99 -820 -729 -94 -91 -238 -231 -320 -311 -83 -79 -213
-206 -290 -280 -77 -75 -299 -288 -492 -474 l-353 -338 0 -841 0 -841 93 90
c896 869 1320 1213 1617 1316 77 26 216 46 345 50 61 1 373 -4 695 -11 719
-16 2736 -11 2815 8 65 15 184 71 249 118 179 130 459 398 1316 1259 687 691
800 811 837 891 48 103 41 245 -18 362 -83 166 -291 272 -472 241z"/>
</g>
</svg>
